<mxfile host="app.diagrams.net" modified="2025-06-10T19:45:05Z" agent="ChatGPT" version="24.3.4"><diagram id="c2e1eb63-16d6-4478-90e5-0cd73437c37b" name="ProdPhysical-AWS2025-v4"><mxGraphModel dx="1282" dy="841" grid="1" gridSize="10" guides="1" tooltips="1" connect="1" arrows="1" fold="1" page="1" pageScale="1" pageWidth="1600" pageHeight="900" math="0" shadow="0"><root><mxCell id="0" /><mxCell id="1" parent="0" /><mxCell id="2" parent="1" value="AI Loyalty Maximizer VPC&#10;10.0.0.0/16" style="shape=mxgraph.aws4.group;grIcon=mxgraph.aws4.group_vpc;fillColor=none;strokeColor=#232F3E;verticalAlign=top;align=left;spacingLeft=26;fontSize=12;html=1;" vertex="1"><mxGeometry as="geometry" x="40" y="40" width="1250" height="820" /></mxCell><mxCell id="3" parent="1" style="shape=mxgraph.aws4.resourceIcon;resIcon=mxgraph.aws4.internet_gateway;gradientColor=none;fillColor=#232F3E;strokeColor=#FFFFFF;verticalLabelPosition=bottom;verticalAlign=top;fontColor=#232F3E;html=1;" vertex="1"><mxGeometry as="geometry" x="625.0" y="-40" width="80" height="80" /></mxCell><mxCell id="4" parent="1" style="shape=mxgraph.aws4.resourceIcon;resIcon=mxgraph.aws4.api_gateway;gradientColor=none;fillColor=#FF9900;strokeColor=#FFFFFF;verticalLabelPosition=bottom;verticalAlign=top;fontColor=#232F3E;html=1;" vertex="1"><mxGeometry as="geometry" x="-80" y="100" width="80" height="80" /></mxCell><mxCell id="5" parent="2" value="Public Subnet&#10;AZ-A&#10;10.0.1.0/24" style="shape=mxgraph.aws4.group;grIcon=mxgraph.aws4.group_public_subnet;fillColor=none;strokeColor=#232F3E;verticalAlign=top;align=left;spacingLeft=26;fontSize=12;html=1;" vertex="1"><mxGeometry as="geometry" x="60.0" y="100" width="390.0" height="160" /></mxCell><mxCell id="6" parent="5" style="shape=mxgraph.aws4.resourceIcon;resIcon=mxgraph.aws4.nat_gateway;gradientColor=none;fillColor=#FFB300;strokeColor=#FFFFFF;verticalLabelPosition=bottom;verticalAlign=top;fontColor=#232F3E;html=1;" vertex="1"><mxGeometry as="geometry" x="230.0" y="155.0" width="50" height="50" /></mxCell><mxCell id="7" parent="2" value="Private-App Subnet&#10;AZ-A" style="shape=mxgraph.aws4.group;grIcon=mxgraph.aws4.group_private_subnet;fillColor=none;strokeColor=#232F3E;verticalAlign=top;align=left;spacingLeft=26;fontSize=12;html=1;" vertex="1"><mxGeometry as="geometry" x="60.0" y="280" width="390.0" height="240" /></mxCell><mxCell id="8" parent="7" style="shape=mxgraph.aws4.resourceIcon;resIcon=mxgraph.aws4.lambda_function;gradientColor=none;fillColor=#F58A1F;strokeColor=#FFFFFF;verticalLabelPosition=bottom;verticalAlign=top;fontColor=#232F3E;html=1;" vertex="1"><mxGeometry as="geometry" x="230.0" y="310" width="50" height="50" /></mxCell><mxCell id="9" parent="7" style="shape=mxgraph.aws4.resourceIcon;resIcon=mxgraph.aws4.step_functions;gradientColor=none;fillColor=#8056E0;strokeColor=#FFFFFF;verticalLabelPosition=bottom;verticalAlign=top;fontColor=#232F3E;html=1;" vertex="1"><mxGeometry as="geometry" x="230.0" y="390" width="50" height="50" /></mxCell><mxCell id="10" parent="7" style="shape=mxgraph.aws4.resourceIcon;resIcon=mxgraph.aws4.sns;gradientColor=none;fillColor=#EA4335;strokeColor=#FFFFFF;verticalLabelPosition=bottom;verticalAlign=top;fontColor=#232F3E;html=1;" vertex="1"><mxGeometry as="geometry" x="230.0" y="470" width="50" height="50" /></mxCell><mxCell id="11" parent="2" value="Private-Data Subnet&#10;AZ-A" style="shape=mxgraph.aws4.group;grIcon=mxgraph.aws4.group_private_subnet;fillColor=none;strokeColor=#232F3E;verticalAlign=top;align=left;spacingLeft=26;fontSize=12;html=1;" vertex="1"><mxGeometry as="geometry" x="60.0" y="540" width="390.0" height="240" /></mxCell><mxCell id="12" parent="11" style="shape=mxgraph.aws4.resourceIcon;resIcon=mxgraph.aws4.neptune;gradientColor=none;fillColor=#1B9FFF;strokeColor=#FFFFFF;verticalLabelPosition=bottom;verticalAlign=top;fontColor=#232F3E;html=1;" vertex="1"><mxGeometry as="geometry" x="230.0" y="635.0" width="50" height="50" /></mxCell><mxCell id="13" parent="2" value="Public Subnet&#10;AZ-B&#10;10.0.2.0/24" style="shape=mxgraph.aws4.group;grIcon=mxgraph.aws4.group_public_subnet;fillColor=none;strokeColor=#232F3E;verticalAlign=top;align=left;spacingLeft=26;fontSize=12;html=1;" vertex="1"><mxGeometry as="geometry" x="470.0" y="100" width="390.0" height="160" /></mxCell><mxCell id="14" parent="13" style="shape=mxgraph.aws4.resourceIcon;resIcon=mxgraph.aws4.nat_gateway;gradientColor=none;fillColor=#FFB300;strokeColor=#FFFFFF;verticalLabelPosition=bottom;verticalAlign=top;fontColor=#232F3E;html=1;" vertex="1"><mxGeometry as="geometry" x="640.0" y="155.0" width="50" height="50" /></mxCell><mxCell id="15" parent="2" value="Private-App Subnet&#10;AZ-B" style="shape=mxgraph.aws4.group;grIcon=mxgraph.aws4.group_private_subnet;fillColor=none;strokeColor=#232F3E;verticalAlign=top;align=left;spacingLeft=26;fontSize=12;html=1;" vertex="1"><mxGeometry as="geometry" x="470.0" y="280" width="390.0" height="240" /></mxCell><mxCell id="16" parent="15" style="shape=mxgraph.aws4.resourceIcon;resIcon=mxgraph.aws4.lambda_function;gradientColor=none;fillColor=#F58A1F;strokeColor=#FFFFFF;verticalLabelPosition=bottom;verticalAlign=top;fontColor=#232F3E;html=1;" vertex="1"><mxGeometry as="geometry" x="640.0" y="310" width="50" height="50" /></mxCell><mxCell id="17" parent="15" style="shape=mxgraph.aws4.resourceIcon;resIcon=mxgraph.aws4.step_functions;gradientColor=none;fillColor=#8056E0;strokeColor=#FFFFFF;verticalLabelPosition=bottom;verticalAlign=top;fontColor=#232F3E;html=1;" vertex="1"><mxGeometry as="geometry" x="640.0" y="390" width="50" height="50" /></mxCell><mxCell id="18" parent="15" style="shape=mxgraph.aws4.resourceIcon;resIcon=mxgraph.aws4.sns;gradientColor=none;fillColor=#EA4335;strokeColor=#FFFFFF;verticalLabelPosition=bottom;verticalAlign=top;fontColor=#232F3E;html=1;" vertex="1"><mxGeometry as="geometry" x="640.0" y="470" width="50" height="50" /></mxCell><mxCell id="19" parent="2" value="Private-Data Subnet&#10;AZ-B" style="shape=mxgraph.aws4.group;grIcon=mxgraph.aws4.group_private_subnet;fillColor=none;strokeColor=#232F3E;verticalAlign=top;align=left;spacingLeft=26;fontSize=12;html=1;" vertex="1"><mxGeometry as="geometry" x="470.0" y="540" width="390.0" height="240" /></mxCell><mxCell id="20" parent="19" style="shape=mxgraph.aws4.resourceIcon;resIcon=mxgraph.aws4.neptune;gradientColor=none;fillColor=#1B9FFF;strokeColor=#FFFFFF;verticalLabelPosition=bottom;verticalAlign=top;fontColor=#232F3E;html=1;" vertex="1"><mxGeometry as="geometry" x="640.0" y="635.0" width="50" height="50" /></mxCell><mxCell id="21" parent="2" value="Public Subnet&#10;AZ-C&#10;10.0.3.0/24" style="shape=mxgraph.aws4.group;grIcon=mxgraph.aws4.group_public_subnet;fillColor=none;strokeColor=#232F3E;verticalAlign=top;align=left;spacingLeft=26;fontSize=12;html=1;" vertex="1"><mxGeometry as="geometry" x="880.0" y="100" width="390.0" height="160" /></mxCell><mxCell id="22" parent="21" style="shape=mxgraph.aws4.resourceIcon;resIcon=mxgraph.aws4.nat_gateway;gradientColor=none;fillColor=#FFB300;strokeColor=#FFFFFF;verticalLabelPosition=bottom;verticalAlign=top;fontColor=#232F3E;html=1;" vertex="1"><mxGeometry as="geometry" x="1050.0" y="155.0" width="50" height="50" /></mxCell><mxCell id="23" parent="2" value="Private-App Subnet&#10;AZ-C" style="shape=mxgraph.aws4.group;grIcon=mxgraph.aws4.group_private_subnet;fillColor=none;strokeColor=#232F3E;verticalAlign=top;align=left;spacingLeft=26;fontSize=12;html=1;" vertex="1"><mxGeometry as="geometry" x="880.0" y="280" width="390.0" height="240" /></mxCell><mxCell id="24" parent="23" style="shape=mxgraph.aws4.resourceIcon;resIcon=mxgraph.aws4.lambda_function;gradientColor=none;fillColor=#F58A1F;strokeColor=#FFFFFF;verticalLabelPosition=bottom;verticalAlign=top;fontColor=#232F3E;html=1;" vertex="1"><mxGeometry as="geometry" x="1050.0" y="310" width="50" height="50" /></mxCell><mxCell id="25" parent="23" style="shape=mxgraph.aws4.resourceIcon;resIcon=mxgraph.aws4.step_functions;gradientColor=none;fillColor=#8056E0;strokeColor=#FFFFFF;verticalLabelPosition=bottom;verticalAlign=top;fontColor=#232F3E;html=1;" vertex="1"><mxGeometry as="geometry" x="1050.0" y="390" width="50" height="50" /></mxCell><mxCell id="26" parent="23" style="shape=mxgraph.aws4.resourceIcon;resIcon=mxgraph.aws4.sns;gradientColor=none;fillColor=#EA4335;strokeColor=#FFFFFF;verticalLabelPosition=bottom;verticalAlign=top;fontColor=#232F3E;html=1;" vertex="1"><mxGeometry as="geometry" x="1050.0" y="470" width="50" height="50" /></mxCell><mxCell id="27" parent="2" value="Private-Data Subnet&#10;AZ-C" style="shape=mxgraph.aws4.group;grIcon=mxgraph.aws4.group_private_subnet;fillColor=none;strokeColor=#232F3E;verticalAlign=top;align=left;spacingLeft=26;fontSize=12;html=1;" vertex="1"><mxGeometry as="geometry" x="880.0" y="540" width="390.0" height="240" /></mxCell><mxCell id="28" parent="1" style="shape=mxgraph.aws4.resourceIcon;resIcon=mxgraph.aws4.bedrock;gradientColor=none;fillColor=#5A30B5;strokeColor=#FFFFFF;verticalLabelPosition=bottom;verticalAlign=top;fontColor=#232F3E;html=1;" vertex="1"><mxGeometry as="geometry" x="1390" y="120" width="60" height="60" /></mxCell><mxCell id="29" parent="1" style="shape=mxgraph.aws4.resourceIcon;resIcon=mxgraph.aws4.s3;gradientColor=none;fillColor=#5A30B5;strokeColor=#FFFFFF;verticalLabelPosition=bottom;verticalAlign=top;fontColor=#232F3E;html=1;" vertex="1"><mxGeometry as="geometry" x="1390" y="230" width="60" height="60" /></mxCell><mxCell id="30" parent="1" style="shape=mxgraph.aws4.resourceIcon;resIcon=mxgraph.aws4.textract;gradientColor=none;fillColor=#5A30B5;strokeColor=#FFFFFF;verticalLabelPosition=bottom;verticalAlign=top;fontColor=#232F3E;html=1;" vertex="1"><mxGeometry as="geometry" x="1390" y="340" width="60" height="60" /></mxCell><mxCell id="31" parent="1" style="shape=mxgraph.aws4.resourceIcon;resIcon=mxgraph.aws4.glue;gradientColor=none;fillColor=#5A30B5;strokeColor=#FFFFFF;verticalLabelPosition=bottom;verticalAlign=top;fontColor=#232F3E;html=1;" vertex="1"><mxGeometry as="geometry" x="1390" y="450" width="60" height="60" /></mxCell><mxCell id="32" parent="1" style="shape=mxgraph.aws4.resourceIcon;resIcon=mxgraph.aws4.dynamodb;gradientColor=none;fillColor=#5A30B5;strokeColor=#FFFFFF;verticalLabelPosition=bottom;verticalAlign=top;fontColor=#232F3E;html=1;" vertex="1"><mxGeometry as="geometry" x="1390" y="560" width="60" height="60" /></mxCell><mxCell id="33" parent="1" style="shape=mxgraph.aws4.resourceIcon;resIcon=mxgraph.aws4.cloudwatch;gradientColor=none;fillColor=#5A30B5;strokeColor=#FFFFFF;verticalLabelPosition=bottom;verticalAlign=top;fontColor=#232F3E;html=1;" vertex="1"><mxGeometry as="geometry" x="1390" y="670" width="60" height="60" /></mxCell><mxCell id="34" parent="1" style="endArrow=block;endFill=1;strokeWidth=2;" edge="1" source="4" target="24"><mxGeometry as="geometry" relative="1" /></mxCell></root></mxGraphModel></diagram></mxfile>